<svg width="100" height="61" viewBox="0 0 100 61" fill="none" xmlns="http://www.w3.org/2000/svg">
<path fill-rule="evenodd" clip-rule="evenodd" d="M17.1771 0.98503C10.3049 2.52153 2.82655 6.42972 0.165737 13.3241C-0.193747 14.1704 0.00993656 15.1867 1.00761 15.6719C1.79024 16.0337 2.94561 15.7541 3.3051 14.9077C6.02141 7.804 14.4419 4.59048 21.427 3.73295C36.2863 1.89251 50.1428 9.10496 60.6524 19.0013C66.0236 24.1478 70.6783 29.9577 75.0026 35.9945C79.7074 42.6204 83.8806 49.5543 87.5222 56.7963C87.4903 56.8823 87.4496 56.987 87.409 57.0916C87.3802 57.1658 87.3514 57.2401 87.3257 57.3076C87.1578 57.1751 86.9251 57.0566 86.7467 56.9657C86.6754 56.9294 86.6128 56.8975 86.5665 56.8709C85.6997 56.2744 84.849 55.6597 83.9983 55.045C83.1475 54.4302 82.2967 53.8155 81.4299 53.2189C74.7747 48.4974 68.0464 43.7119 61.3181 38.9264C60.591 38.3553 59.5555 38.3528 58.9122 39.08C58.3332 39.7345 58.3395 40.9006 59.0667 41.4717C61.1295 42.9526 63.1913 44.4164 65.2531 45.8802C67.3148 47.3439 69.3764 48.8077 71.4392 50.2885C73.2826 51.5775 75.1099 52.8847 76.9371 54.1919C78.7644 55.499 80.5917 56.8062 82.4351 58.0952C83.3773 58.7899 84.2463 59.4206 85.184 60.0469C86.1218 60.6732 87.1195 61.1585 88.2105 60.9516C90.1351 60.6476 90.7253 58.7274 91.2326 57.0768C91.3016 56.8522 91.3691 56.6326 91.4382 56.4227L99.9411 30.9719C100.232 30.1299 99.4094 29.1531 98.4206 28.8046C97.4406 28.5926 96.651 29.192 96.3647 30.1023C95.6444 32.3097 94.907 34.5182 94.1696 36.7267C93.4322 38.9352 92.6947 41.1438 91.9745 43.3512C91.2348 45.645 90.4701 47.917 89.7088 50.179C89.4781 50.8643 89.2478 51.5486 89.0186 52.2324C85.1523 44.8889 80.7733 37.8496 75.7979 31.2091C66.5818 18.8973 55.2013 7.27252 40.18 2.33017C32.7724 -0.147591 24.7966 -0.736407 17.1771 0.98503ZM87.5265 57.5249C87.5701 57.5765 87.5865 57.5779 87.5837 57.5657C87.581 57.5535 87.5592 57.5277 87.5265 57.5249Z" fill="#A4ABB8"/>
</svg>
